<svg xmlns="http://www.w3.org/2000/svg" viewBox="0 0 24 24" fill="none" stroke="currentColor" stroke-width="2" stroke-linecap="round" stroke-linejoin="round" aria-hidden="true">
  <title>┬@ëŘ</title>
  <!-- cbŘľ + Y + ˘@ -->
  <path d="M7.5 9 5.5 4.5"/>
  <path d="M16.5 9 18.5 4.5"/>
  <path d="M12 20c-3.2 0-5.5-2.2-5.8-5.2C6 11.5 8.5 9 12 9s6 2.5 5.8 5.8c-.3 3-2.6 5.2-5.8 5.2z"/>
  <path d="M9.5 13.5h5"/>
  <path d="M10 12 9 10.5"/>
  <path d="M14 12 15 10.5"/>
  <path d="M10.5 17v2.5"/>
  <path d="M13.5 17v3"/>
  <path d="M7 19.5c-.5 1-1.5 1.5-2.5 1"/>
  <path d="M12 7.5c0-.5.3-1 .8-1.2"/>
</svg>
