<svg xmlns="http://www.w3.org/2000/svg" viewBox="0 0 24 24" fill="none" stroke="currentColor" stroke-width="2" stroke-linecap="round" stroke-linejoin="round" aria-hidden="true">
  <title>P¿‗</title>
  <!-- k¿ + Á|‗ -->
  <path d="M5 11h14"/>
  <path d="M5 11v1.5c0 1 .8 1.5 2 1.5h1"/>
  <path d="M19 11v1.5c0 1-.8 1.5-2 1.5h-1"/>
  <path d="M8 13.5c1.5-.8 3-.8 4.5 0s3 .8 4.5 0"/>
  <path d="M9 15.5c1.2-.5 2.5-.5 3.6 0"/>
  <path d="M10 17c2-.3 3.5-.3 5.5 0"/>
  <circle cx="15.5" cy="16.5" r="1"/>
  <path d="M16.5 15.5 17.5 14"/>
  <circle cx="17.8" cy="13.8" r="0.35" fill="currentColor" stroke="none"/>
</svg>
