<svg xmlns="http://www.w3.org/2000/svg" viewBox="0 0 24 24" fill="none" stroke="currentColor" stroke-width="2" stroke-linecap="round" stroke-linejoin="round" aria-hidden="true">
  <title>PM</title>
  <!-- 7ÚM‘ + °ûHB -->
  <path d="M8 21V13c0-2.5 1.8-4.5 4-4.5s4 2 4 4.5v8"/>
  <path d="M10 8.5c0-1.8 1-3 2-3s2 1.2 2 3"/>
  <path d="M10.5 10.5 9.5 9"/>
  <path d="M13.5 10.5 14.5 9"/>
  <path d="M10 12.5h4"/>
  <path d="M16 15l4-3"/>
  <path d="M16 13v2"/>
  <path d="M12 5.5V3"/>
  <path d="M9 4c.6-.9 1.6-1.3 2.5-1"/>
  <path d="M15 4c-.6-.9-1.6-1.3-2.5-1"/>
  <path d="M12 3c0 .8-.3 1.5-.8 2"/>
</svg>
