<svg xmlns="http://www.w3.org/2000/svg" viewBox="0 0 24 24" fill="none" stroke="currentColor" stroke-width="2" stroke-linecap="round" stroke-linejoin="round" aria-hidden="true">
  <title>î—KĂw[</title>
  <!-- 9 Ň -->
  <path d="M8 5 6.5 2.5"/>
  <path d="M16 5 17.5 2.5"/>
  <path d="M12 4V2"/>
  <path d="M5.5 9c0-2.2 2.8-4 6.5-4s6.5 1.8 6.5 4"/>
  <!-- 9y -->
  <path d="M10 9v9"/>
  <path d="M14 9v9"/>
  <!-- Ă8 -->
  <path d="M12 11.5c-1.3-1.6-3.2-.9-3.2 1.3 0 2.2 3.2 4 3.2 4s3.2-1.8 3.2-4c0-2.2-1.9-2.9-3.2-1.3z"/>
  <!-- 99 -->
  <path d="M10 18 8.5 21.5"/>
  <path d="M14 18 15.5 21.5"/>
  <path d="M12 18v2.5"/>
  <!-- 9®w© -->
  <path d="M6.5 11.5h2.5"/>
  <path d="M15 11.5h2.5"/>
  <path d="M7 14.5c1-.6 2-.6 3 0"/>
  <path d="M14 14.5c1-.6 2-.6 3 0"/>
</svg>
