<svg xmlns="http://www.w3.org/2000/svg" viewBox="0 0 24 24" fill="none" stroke="currentColor" stroke-width="2" stroke-linecap="round" stroke-linejoin="round" aria-hidden="true">
  <title>Ėrâ</title>
  <!-- Ėrēa + ō
Æ―b -->
  <path d="M12 21v-5"/>
  <path d="M12 16c-4-1.5-7 0-8.5 3"/>
  <path d="M12 16c4-1.5 7 0 8.5 3"/>
  <path d="M12 16c-3 1-4.5 3.5-3.5 6"/>
  <path d="M12 16c3 1 4.5 3.5 3.5 6"/>
  <path d="M12 12c-3.5-2.5-5.5-1.5-6.5 1"/>
  <path d="M12 12c3.5-2.5 5.5-1.5 6.5 1"/>
  <circle cx="4" cy="17.5" r="1.3"/>
  <circle cx="20" cy="17.5" r="1.3"/>
  <circle cx="12" cy="21" r="1.1"/>
  <circle cx="9" cy="9.5" r="0.8"/>
  <circle cx="15" cy="9.5" r="0.8"/>
</svg>
